:SAMPLES-PER-SECOND 30
:FULLY-SPECIFIED
:DEGREES
262
root  9.3529 28.8904 -2.86212 29.4474 -61.6127 -9.78337
RightUpLeg  -68.7377 -12.788 7.03744
RightLeg  77.5812 -0.929798 -3.518
RightFoot  -8.58699 0.0594648 1.16969
RightToes  -27.9547 -0.130093 -0.237502
Spine  21.3033 -7.18606 -3.35098
Spine1  32.6026 -17.6638 -1.06157
HEad  10.4476 -21.4881 41.8109
LeftShoulder1  0 -2.42657e-020 -4.95415e-022
LeftArm  -49.138 -57.4196 -43.0888
LeftForeArm  45.8856 -14.6349 -2.61672
LeftHand  1.61392 -12.9518 -14.5246
RightShoulder  0 2.42657e-020 1.07489e-018
RightArm  11.3648 29.0098 120.509
RightForeArm  34.4244 27.8809 5.34344
RightHand  -0.90208 24.5775 -3.77045
LeftUpLeg  -71.086 19.006 4.80096
LeftLeg  54.9877 -11.006 -13.4146
LeftFoot  -11.153 0.218351 2.23606
LeftToes  -53.7825 2.34596e-006 -6.06653e-008
263
root  8.12509 27.735 -3.28224 35.6624 -67.4512 -15.5651
RightUpLeg  -70.1301 -12.9933 -3.22732
RightLeg  72.7242 -3.22152 -8.54316
RightFoot  -11.2941 0.307843 3.49031
RightToes  -21.026 -0.0872515 -0.18502
Spine  22.1729 -6.15691 -1.97806
Spine1  33.4022 -15.4759 0.306439
HEad  11.0921 -15.1041 34.5921
LeftShoulder1  0 -2.42657e-020 -4.95415e-022
LeftArm  -44.0417 -59.564 -49.8887
LeftForeArm  49.6128 -10.3869 -1.82718
LeftHand  1.88068 -13.839 -15.7824
RightShoulder  0 2.42657e-020 1.07489e-018
RightArm  5.53162 34.8446 121.348
RightForeArm  35.7559 23.3464 4.3536
RightHand  -0.597227 24.3507 -2.39813
LeftUpLeg  -74.1884 18.3577 7.2242
LeftLeg  59.7728 -12.0518 -17.2655
LeftFoot  -9.10847 0.14283 1.79297
LeftToes  -49.5533 2.34596e-006 -6.06653e-008
264
root  6.64048 26.0931 -3.3956 39.4084 -75.5414 -19.7961
RightUpLeg  -71.5492 -14.686 -13.9288
RightLeg  63.9295 -4.24954 -7.49344
RightFoot  -13.7184 0.509978 4.61544
RightToes  -15.7748 -0.0591783 -0.142013
Spine  22.8778 -4.42987 -1.62992
Spine1  34.5769 -11.7477 -0.478646
HEad  11.1747 -9.16941 25.2745
LeftShoulder1  0 -2.42657e-020 -4.95415e-022
LeftArm  -35.3027 -59.6363 -57.9246
LeftForeArm  55.2058 -7.81498 -1.35418
LeftHand  2.03113 -14.195 -16.5833
RightShoulder  0 2.42657e-020 1.07489e-018
RightArm  -1.06443 40.9518 119.607
RightForeArm  33.3352 19.7722 3.62524
RightHand  -0.630686 23.6019 -2.64869
LeftUpLeg  -73.1234 15.6933 14.4225
LeftLeg  70.0816 -10.3274 -22.3246
LeftFoot  -3.82436 -0.036749 -1.1007
LeftToes  -33.2893 2.34596e-006 -6.06653e-008
265
root  4.91475 24.4074 -3.8852 64.297 -83.2288 -45.2797
RightUpLeg  -74.7476 -16.6092 -15.7416
RightLeg  56.4556 -1.16263 -1.59965
RightFoot  -10.4165 0.246301 3.07934
RightToes  -34.0873 -0.173055 -0.279346
Spine  22.8022 -1.77794 -1.36679
Spine1  34.8677 -6.58669 -0.841873
HEad  11.1735 -4.85887 17.3518
LeftShoulder1  0 -2.42657e-020 -4.95415e-022
LeftArm  -32.1528 -57.4593 -66.1631
LeftForeArm  57.113 -6.24049 -1.07019
LeftHand  1.70034 -12.8824 -15.3544
RightShoulder  0 2.42657e-020 1.07489e-018
RightArm  -10.9164 46.2795 115.441
RightForeArm  35.3899 18.085 3.29081
RightHand  -1.22942 22.4635 -5.81684
LeftUpLeg  -70.5667 17.8901 20.0712
LeftLeg  79.4898 -4.35787 -16.75
LeftFoot  -11.1294 -0.0305943 -0.314025
LeftToes  -40.4543 2.34596e-006 -6.06653e-008
266
root  3.25369 22.8337 -4.69411 131.423 -85.21 -112.484
RightUpLeg  -77.0607 -16.165 -14.498
RightLeg  57.2874 0.0660619 0.0155487
RightFoot  -4.94739 0.0963533 2.60799
RightToes  -41.5333 -0.230846 -0.323619
Spine  22.4524 0.113304 -0.555631
Spine1  34.7874 -2.48526 -0.852356
HEad  10.8513 -1.63344 10.1209
LeftShoulder1  0 -2.42657e-020 -4.95415e-022
LeftArm  -27.6344 -53.6119 -70.7165
LeftForeArm  57.5316 -6.86838 -1.18083
LeftHand  1.73535 -12.8895 -15.6509
RightShoulder  0 2.42657e-020 1.07489e-018
RightArm  -15.6245 50.3497 107.798
RightForeArm  38.1837 19.5043 3.56745
RightHand  -1.41633 22.9459 -6.60187
LeftUpLeg  -66.9282 19.5518 24.8683
LeftLeg  86.8365 -1.56198 -12.849
LeftFoot  -16.8582 -0.0713588 -0.481555
LeftToes  -44.1848 2.34596e-006 -6.06653e-008
267
root  1.71696 21.4566 -5.44109 149.477 -84.8196 -130.868
RightUpLeg  -83.2716 -17.7324 -13.3189
RightLeg  67.7413 2.70032 5.38867
RightFoot  4.93967 -0.114401 3.02889
RightToes  -46.5006 -0.272382 -0.348822
Spine  23.0448 0.450914 1.01117
Spine1  36.2208 -1.05111 -0.677462
HEad  8.48303 1.96876 4.87632
LeftShoulder1  0 -2.42657e-020 -4.95415e-022
LeftArm  -28.7633 -50.5582 -71.2975
LeftForeArm  54.0535 -9.47753 -1.65478
LeftHand  1.79114 -13.3801 -15.5598
RightShoulder  0 2.42657e-020 1.07489e-018
RightArm  -16.4678 55.3668 99.5155
RightForeArm  39.5684 22.0057 4.07118
RightHand  -1.2259 23.0917 -5.62717
LeftUpLeg  -64.152 13.9338 30.1662
LeftLeg  92.2556 -0.201424 -8.31049
LeftFoot  -20.7667 -0.287719 -1.57014
LeftToes  -48.0805 2.34596e-006 -6.06653e-008
